<mxfile host="Electron" modified="2023-11-02T07:41:27.315Z" agent="Mozilla/5.0 (Macintosh; Intel Mac OS X 10_15_7) AppleWebKit/537.36 (KHTML, like Gecko) draw.io/21.8.2 Chrome/114.0.5735.289 Electron/25.8.1 Safari/537.36" etag="m_fX2hl-ooVIyjDdGsAF" version="21.8.2" type="device">
  <diagram name="第 1 页" id="kt9P0G5mmQLvpfFtK3UK">
    <mxGraphModel dx="1482" dy="1932" grid="1" gridSize="10" guides="1" tooltips="1" connect="1" arrows="1" fold="1" page="1" pageScale="1" pageWidth="827" pageHeight="1169" math="0" shadow="0">
      <root>
        <mxCell id="0" />
        <mxCell id="1" parent="0" />
        <mxCell id="FSl91sq1wY3JN03Ezqq5-17" value="" style="rounded=0;whiteSpace=wrap;html=1;" vertex="1" parent="1">
          <mxGeometry x="100" y="-130" width="620" height="660" as="geometry" />
        </mxCell>
        <mxCell id="FSl91sq1wY3JN03Ezqq5-1" value="&lt;div style=&quot;background-color: rgb(255, 255, 255); font-family: Menlo, Monaco, &amp;quot;Courier New&amp;quot;, monospace; line-height: 18px;&quot;&gt;&lt;div style=&quot;line-height: 18px;&quot;&gt;FinalProof&lt;/div&gt;&lt;/div&gt;" style="rounded=1;whiteSpace=wrap;html=1;" vertex="1" parent="1">
          <mxGeometry x="240" y="440" width="190" height="60" as="geometry" />
        </mxCell>
        <mxCell id="FSl91sq1wY3JN03Ezqq5-3" style="edgeStyle=orthogonalEdgeStyle;rounded=0;orthogonalLoop=1;jettySize=auto;html=1;" edge="1" parent="1" source="FSl91sq1wY3JN03Ezqq5-2" target="FSl91sq1wY3JN03Ezqq5-1">
          <mxGeometry relative="1" as="geometry" />
        </mxCell>
        <mxCell id="FSl91sq1wY3JN03Ezqq5-2" value="&lt;div style=&quot;background-color: rgb(255, 255, 255); font-family: Menlo, Monaco, &amp;quot;Courier New&amp;quot;, monospace; line-height: 18px;&quot;&gt;&lt;div style=&quot;line-height: 18px;&quot;&gt;&lt;div style=&quot;line-height: 18px;&quot;&gt;RecursiveProof&lt;/div&gt;&lt;/div&gt;&lt;/div&gt;" style="rounded=1;whiteSpace=wrap;html=1;" vertex="1" parent="1">
          <mxGeometry x="240" y="290" width="190" height="60" as="geometry" />
        </mxCell>
        <mxCell id="FSl91sq1wY3JN03Ezqq5-8" style="edgeStyle=orthogonalEdgeStyle;rounded=0;orthogonalLoop=1;jettySize=auto;html=1;" edge="1" parent="1" source="FSl91sq1wY3JN03Ezqq5-4" target="FSl91sq1wY3JN03Ezqq5-2">
          <mxGeometry relative="1" as="geometry" />
        </mxCell>
        <mxCell id="FSl91sq1wY3JN03Ezqq5-4" value="&lt;div style=&quot;background-color: rgb(255, 255, 255); font-family: Menlo, Monaco, &amp;quot;Courier New&amp;quot;, monospace; line-height: 18px;&quot;&gt;&lt;div style=&quot;line-height: 18px;&quot;&gt;&lt;div style=&quot;line-height: 18px;&quot;&gt;&lt;div style=&quot;line-height: 18px;&quot;&gt;&lt;div style=&quot;line-height: 18px;&quot;&gt;batch proof1&lt;/div&gt;&lt;/div&gt;&lt;/div&gt;&lt;/div&gt;&lt;/div&gt;" style="rounded=1;whiteSpace=wrap;html=1;" vertex="1" parent="1">
          <mxGeometry x="130" y="120" width="190" height="60" as="geometry" />
        </mxCell>
        <mxCell id="FSl91sq1wY3JN03Ezqq5-9" style="edgeStyle=orthogonalEdgeStyle;rounded=0;orthogonalLoop=1;jettySize=auto;html=1;" edge="1" parent="1" source="FSl91sq1wY3JN03Ezqq5-6" target="FSl91sq1wY3JN03Ezqq5-2">
          <mxGeometry relative="1" as="geometry" />
        </mxCell>
        <mxCell id="FSl91sq1wY3JN03Ezqq5-6" value="&lt;div style=&quot;background-color: rgb(255, 255, 255); font-family: Menlo, Monaco, &amp;quot;Courier New&amp;quot;, monospace; line-height: 18px;&quot;&gt;&lt;div style=&quot;line-height: 18px;&quot;&gt;&lt;div style=&quot;line-height: 18px;&quot;&gt;&lt;div style=&quot;line-height: 18px;&quot;&gt;&lt;div style=&quot;line-height: 18px;&quot;&gt;batch proof2&lt;/div&gt;&lt;/div&gt;&lt;/div&gt;&lt;/div&gt;&lt;/div&gt;" style="rounded=1;whiteSpace=wrap;html=1;" vertex="1" parent="1">
          <mxGeometry x="370" y="120" width="190" height="60" as="geometry" />
        </mxCell>
        <mxCell id="FSl91sq1wY3JN03Ezqq5-7" value="&lt;div style=&quot;background-color: rgb(255, 255, 255); font-family: Menlo, Monaco, &amp;quot;Courier New&amp;quot;, monospace; line-height: 18px;&quot;&gt;FinalProof&lt;/div&gt;" style="shape=process;whiteSpace=wrap;html=1;backgroundOutline=1;" vertex="1" parent="1">
          <mxGeometry x="520" y="400" width="130" height="30" as="geometry" />
        </mxCell>
        <mxCell id="FSl91sq1wY3JN03Ezqq5-10" value="&lt;div style=&quot;background-color: rgb(255, 255, 255); font-family: Menlo, Monaco, &amp;quot;Courier New&amp;quot;, monospace; line-height: 18px;&quot;&gt;&lt;div style=&quot;line-height: 18px;&quot;&gt;AggregatedProof&lt;/div&gt;&lt;/div&gt;" style="shape=process;whiteSpace=wrap;html=1;backgroundOutline=1;" vertex="1" parent="1">
          <mxGeometry x="510" y="270" width="150" height="30" as="geometry" />
        </mxCell>
        <mxCell id="FSl91sq1wY3JN03Ezqq5-12" style="edgeStyle=orthogonalEdgeStyle;rounded=0;orthogonalLoop=1;jettySize=auto;html=1;" edge="1" parent="1" source="FSl91sq1wY3JN03Ezqq5-11" target="FSl91sq1wY3JN03Ezqq5-6">
          <mxGeometry relative="1" as="geometry" />
        </mxCell>
        <mxCell id="FSl91sq1wY3JN03Ezqq5-11" value="&lt;div style=&quot;background-color: rgb(255, 255, 255); font-family: Menlo, Monaco, &amp;quot;Courier New&amp;quot;, monospace; line-height: 18px;&quot;&gt;&lt;div style=&quot;line-height: 18px;&quot;&gt;&lt;div style=&quot;line-height: 18px;&quot;&gt;&lt;div style=&quot;line-height: 18px;&quot;&gt;&lt;div style=&quot;line-height: 18px;&quot;&gt;Batch&lt;/div&gt;&lt;/div&gt;&lt;/div&gt;&lt;/div&gt;&lt;/div&gt;" style="rounded=1;whiteSpace=wrap;html=1;" vertex="1" parent="1">
          <mxGeometry x="250" y="-60" width="190" height="60" as="geometry" />
        </mxCell>
        <mxCell id="FSl91sq1wY3JN03Ezqq5-13" style="edgeStyle=orthogonalEdgeStyle;rounded=0;orthogonalLoop=1;jettySize=auto;html=1;entryX=0.5;entryY=0;entryDx=0;entryDy=0;" edge="1" parent="1" source="FSl91sq1wY3JN03Ezqq5-11" target="FSl91sq1wY3JN03Ezqq5-4">
          <mxGeometry relative="1" as="geometry" />
        </mxCell>
        <mxCell id="FSl91sq1wY3JN03Ezqq5-14" value="&lt;div style=&quot;background-color: rgb(255, 255, 255); font-family: Menlo, Monaco, &amp;quot;Courier New&amp;quot;, monospace; line-height: 18px;&quot;&gt;&lt;div style=&quot;line-height: 18px;&quot;&gt;&lt;div style=&quot;line-height: 18px;&quot;&gt;BatchProof&lt;/div&gt;&lt;/div&gt;&lt;/div&gt;" style="shape=process;whiteSpace=wrap;html=1;backgroundOutline=1;" vertex="1" parent="1">
          <mxGeometry x="510" y="10" width="150" height="30" as="geometry" />
        </mxCell>
        <mxCell id="FSl91sq1wY3JN03Ezqq5-18" value="Proof 生成过程" style="text;html=1;strokeColor=none;fillColor=none;align=center;verticalAlign=middle;whiteSpace=wrap;rounded=0;" vertex="1" parent="1">
          <mxGeometry x="340" y="-100" width="90" height="30" as="geometry" />
        </mxCell>
      </root>
    </mxGraphModel>
  </diagram>
</mxfile>
